<?xml version="1.0" encoding="iso-8859-1"?>
<!-- Generator: Adobe Illustrator 21.0.0, SVG Export Plug-In . SVG Version: 6.00 Build 0)  -->
<svg version="1.1" id="Capa_1" xmlns="http://www.w3.org/2000/svg" xmlns:xlink="http://www.w3.org/1999/xlink" x="0px" y="0px"
	 viewBox="0 0 511.999 511.999" style="enable-background:new 0 0 511.999 511.999;" xml:space="preserve">
<path style="fill:#FFD164;" d="M190.496,62.237l-13.282-13.282c-6.013-6.013-14.169-9.391-22.673-9.391H39.565
	C21.856,39.564,7.5,53.919,7.5,71.628V440.37c0,17.709,14.356,32.065,32.065,32.065h432.871c17.709,0,32.065-14.356,32.065-32.065
	V103.693c0-17.709-14.356-32.065-32.065-32.065H213.169C204.665,71.628,196.509,68.25,190.496,62.237z"/>
<path style="fill:#FFE17D;" d="M472.435,472.434H39.565c-17.709,0-32.065-14.356-32.065-32.065V143.773
	c0-17.709,14.356-32.065,32.065-32.065h432.871c17.709,0,32.065,14.356,32.065,32.065V440.37
	C504.5,458.079,490.144,472.434,472.435,472.434z"/>
<path style="fill:#C9C6CA;" d="M256,424.338L256,424.338c-48.699,0-88.178-39.478-88.178-88.177v-48.097
	c0-13.282,10.767-24.048,24.048-24.048h128.258c13.282,0,24.048,10.767,24.048,24.048v48.097
	C344.177,384.859,304.699,424.338,256,424.338z"/>
<path style="fill:#6F6571;" d="M256,159.805c-35.417,0-64.129,28.712-64.129,64.129v40.081h32.065v-40.081
	c0-17.709,14.356-32.065,32.065-32.065s32.065,14.356,32.065,32.065v40.081h32.065v-40.081
	C320.129,188.517,291.417,159.805,256,159.805z"/>
<circle style="fill:#5D5360;" cx="256" cy="328.139" r="16.03"/>
<path style="fill:#B7B2B8;" d="M280.048,416.322c-48.7,0-88.177-39.478-88.177-88.177v-64.129
	c-13.282,0-24.048,10.767-24.048,24.048v48.097c0,48.699,39.478,88.177,88.177,88.177c14.255,0,27.675-3.461,39.591-9.468
	C290.538,415.771,285.362,416.322,280.048,416.322z"/>
<g>
	<rect x="191.87" y="239.969" style="fill:#5D5360;" width="32.06" height="24.05"/>
	<rect x="288.06" y="239.969" style="fill:#5D5360;" width="32.06" height="24.05"/>
</g>
<path style="fill:#FFD164;" d="M127.742,448.386c-53.126,0-96.194-43.068-96.194-96.194v-239.35
	C17.743,116.418,7.5,128.849,7.5,143.773V440.37c0,17.708,14.355,32.065,32.065,32.065h432.871
	c14.924,0,27.355-10.243,30.931-24.048L127.742,448.386L127.742,448.386z"/>
<path d="M472.436,64.128H213.168c-6.561,0-12.73-2.555-17.37-7.194l0,0l-13.282-13.281c-7.473-7.473-17.408-11.588-27.976-11.588
	H39.564C17.749,32.063,0,49.812,0,71.628V440.37c0,21.816,17.749,39.564,39.564,39.564h432.871
	c21.816,0,39.564-17.749,39.564-39.564V103.692C512,81.877,494.251,64.128,472.436,64.128z M497,440.37
	c0,13.545-11.02,24.564-24.564,24.564H39.564C26.02,464.935,15,453.915,15,440.37V143.773c0-13.545,11.02-24.564,24.564-24.564
	h392.79c4.142,0,7.5-3.358,7.5-7.5c0-4.143-3.358-7.5-7.5-7.5H39.564c-9.276,0-17.811,3.217-24.564,8.583V71.628
	c0-13.545,11.02-24.564,24.564-24.564h114.977c6.562,0,12.73,2.555,17.37,7.195l13.282,13.281l0,0
	c7.473,7.473,17.408,11.588,27.976,11.588h259.267c13.545,0,24.564,11.02,24.564,24.564v9.1c-6.754-5.366-15.288-8.583-24.564-8.583
	h-8.018c-4.142,0-7.5,3.357-7.5,7.5c0,4.142,3.358,7.5,7.5,7.5h8.018c13.545,0,24.564,11.02,24.564,24.564L497,440.37L497,440.37z"
	/>
<path d="M327.629,257.423v-33.489c0-39.497-32.133-71.629-71.629-71.629s-71.629,32.132-71.629,71.629v33.489
	c-13.786,3.375-24.048,15.829-24.048,30.64c0,4.142,3.358,7.5,7.5,7.5s7.5-3.358,7.5-7.5c0-9.125,7.423-16.548,16.548-16.548
	h128.258c9.125,0,16.548,7.423,16.548,16.548v48.097c0,44.486-36.192,80.678-80.677,80.678s-80.677-36.192-80.677-80.678v-16.032
	c0-4.142-3.358-7.5-7.5-7.5s-7.5,3.358-7.5,7.5v16.032c0,52.757,42.92,95.678,95.677,95.678s95.677-42.921,95.677-95.678v-48.097
	C351.677,273.252,341.415,260.799,327.629,257.423z M256,167.306c31.225,0,56.629,25.403,56.629,56.629v32.581h-17.064v-32.581
	c0-21.816-17.749-39.564-39.564-39.564s-39.564,17.748-39.564,39.564v32.581h-17.064v-32.581
	C199.371,192.709,224.775,167.306,256,167.306z M280.564,256.515h-49.129v-32.581c0-13.545,11.02-24.564,24.564-24.564
	c13.544,0,24.564,11.02,24.564,24.564v32.581H280.564z"/>
<path d="M256,375.725c4.142,0,7.5-3.357,7.5-7.5v-17.781c9.308-3.139,16.032-11.946,16.032-22.299
	c0-12.976-10.557-23.533-23.532-23.533s-23.532,10.557-23.532,23.533c0,10.354,6.724,19.16,16.032,22.299v17.781
	C248.5,372.367,251.858,375.725,256,375.725z M256,319.612c4.705,0,8.532,3.828,8.532,8.533c0,4.704-3.828,8.532-8.532,8.532
	s-8.532-3.828-8.532-8.532C247.468,323.439,251.295,319.612,256,319.612z"/>
<g>
</g>
<g>
</g>
<g>
</g>
<g>
</g>
<g>
</g>
<g>
</g>
<g>
</g>
<g>
</g>
<g>
</g>
<g>
</g>
<g>
</g>
<g>
</g>
<g>
</g>
<g>
</g>
<g>
</g>
</svg>
